<mxfile host="app.diagrams.net" modified="2023-06-04T12:12:03.089Z" agent="Mozilla/5.0 (X11; Linux x86_64) AppleWebKit/537.36 (KHTML, like Gecko) Chrome/113.0.0.0 Safari/537.36 OPR/99.0.0.0" etag="DVoapjxHG3vS_dKGpMT9" version="21.3.2" type="device">
  <diagram id="R2lEEEUBdFMjLlhIrx00" name="Page-1">
    <mxGraphModel dx="2930" dy="1778" grid="0" gridSize="10" guides="1" tooltips="1" connect="1" arrows="1" fold="1" page="0" pageScale="1" pageWidth="850" pageHeight="1100" math="0" shadow="0" extFonts="Permanent Marker^https://fonts.googleapis.com/css?family=Permanent+Marker">
      <root>
        <mxCell id="0" />
        <mxCell id="1" parent="0" />
        <mxCell id="gP51IHi8TqBae0V_nnSG-3" value="" style="endArrow=none;html=1;rounded=0;entryX=0.323;entryY=1.023;entryDx=0;entryDy=0;entryPerimeter=0;" parent="1" source="gP51IHi8TqBae0V_nnSG-5" target="gP51IHi8TqBae0V_nnSG-6" edge="1">
          <mxGeometry width="50" height="50" relative="1" as="geometry">
            <mxPoint x="-537" y="29" as="sourcePoint" />
            <mxPoint x="-504.44000000000005" y="-28" as="targetPoint" />
          </mxGeometry>
        </mxCell>
        <mxCell id="gP51IHi8TqBae0V_nnSG-5" value="Εικόνα" style="ellipse;whiteSpace=wrap;html=1;align=center;" parent="1" vertex="1">
          <mxGeometry x="-874" y="-19" width="100" height="40" as="geometry" />
        </mxCell>
        <mxCell id="gP51IHi8TqBae0V_nnSG-6" value="Βιβλίο" style="whiteSpace=wrap;html=1;align=center;" parent="1" vertex="1">
          <mxGeometry x="-581" y="-85" width="99" height="43" as="geometry" />
        </mxCell>
        <mxCell id="gP51IHi8TqBae0V_nnSG-7" value="" style="endArrow=none;html=1;rounded=0;entryX=0.11;entryY=0.985;entryDx=0;entryDy=0;entryPerimeter=0;exitX=0.973;exitY=0.376;exitDx=0;exitDy=0;exitPerimeter=0;" parent="1" source="gP51IHi8TqBae0V_nnSG-9" target="gP51IHi8TqBae0V_nnSG-6" edge="1">
          <mxGeometry width="50" height="50" relative="1" as="geometry">
            <mxPoint x="-594" y="7" as="sourcePoint" />
            <mxPoint x="143" y="274" as="targetPoint" />
          </mxGeometry>
        </mxCell>
        <mxCell id="gP51IHi8TqBae0V_nnSG-9" value="&lt;u&gt;ISBN&lt;/u&gt;" style="ellipse;whiteSpace=wrap;html=1;align=center;" parent="1" vertex="1">
          <mxGeometry x="-847" y="-100.5" width="100" height="45" as="geometry" />
        </mxCell>
        <mxCell id="gP51IHi8TqBae0V_nnSG-17" value="" style="endArrow=none;html=1;rounded=0;exitX=0.5;exitY=1;exitDx=0;exitDy=0;" parent="1" source="H-eDrQXZCRibyy9c3LL--2" target="gP51IHi8TqBae0V_nnSG-6" edge="1">
          <mxGeometry width="50" height="50" relative="1" as="geometry">
            <mxPoint x="-680" y="-199" as="sourcePoint" />
            <mxPoint x="-19" y="-211" as="targetPoint" />
          </mxGeometry>
        </mxCell>
        <mxCell id="gP51IHi8TqBae0V_nnSG-18" value="Γλώσσα" style="ellipse;whiteSpace=wrap;html=1;align=center;" parent="1" vertex="1">
          <mxGeometry x="-611" y="-320" width="100" height="40" as="geometry" />
        </mxCell>
        <mxCell id="gP51IHi8TqBae0V_nnSG-19" value="Τίτλος" style="ellipse;whiteSpace=wrap;html=1;align=center;" parent="1" vertex="1">
          <mxGeometry x="-701" y="-294" width="100" height="40" as="geometry" />
        </mxCell>
        <mxCell id="gP51IHi8TqBae0V_nnSG-20" value="Εκδότης" style="ellipse;whiteSpace=wrap;html=1;align=center;" parent="1" vertex="1">
          <mxGeometry x="-799" y="58" width="100" height="40" as="geometry" />
        </mxCell>
        <mxCell id="gP51IHi8TqBae0V_nnSG-21" value="Περίληψη" style="ellipse;whiteSpace=wrap;html=1;align=center;" parent="1" vertex="1">
          <mxGeometry x="-905" y="-145" width="100" height="40" as="geometry" />
        </mxCell>
        <mxCell id="gP51IHi8TqBae0V_nnSG-22" value="" style="endArrow=none;html=1;rounded=0;entryX=0.571;entryY=0.987;entryDx=0;entryDy=0;entryPerimeter=0;exitX=0.589;exitY=0.037;exitDx=0;exitDy=0;exitPerimeter=0;" parent="1" source="gP51IHi8TqBae0V_nnSG-6" target="gP51IHi8TqBae0V_nnSG-19" edge="1">
          <mxGeometry width="50" height="50" relative="1" as="geometry">
            <mxPoint x="-69" y="-161" as="sourcePoint" />
            <mxPoint x="-19" y="-211" as="targetPoint" />
          </mxGeometry>
        </mxCell>
        <mxCell id="gP51IHi8TqBae0V_nnSG-23" value="" style="endArrow=none;html=1;rounded=0;exitX=0.347;exitY=0.987;exitDx=0;exitDy=0;exitPerimeter=0;entryX=0.75;entryY=0;entryDx=0;entryDy=0;" parent="1" source="gP51IHi8TqBae0V_nnSG-18" target="gP51IHi8TqBae0V_nnSG-6" edge="1">
          <mxGeometry width="50" height="50" relative="1" as="geometry">
            <mxPoint x="-69" y="-161" as="sourcePoint" />
            <mxPoint x="-19" y="-211" as="targetPoint" />
          </mxGeometry>
        </mxCell>
        <mxCell id="gP51IHi8TqBae0V_nnSG-24" value="" style="endArrow=none;html=1;rounded=0;exitX=0.5;exitY=0;exitDx=0;exitDy=0;entryX=0.5;entryY=1;entryDx=0;entryDy=0;" parent="1" source="gP51IHi8TqBae0V_nnSG-20" target="gP51IHi8TqBae0V_nnSG-6" edge="1">
          <mxGeometry width="50" height="50" relative="1" as="geometry">
            <mxPoint x="-69" y="-161" as="sourcePoint" />
            <mxPoint x="-19" y="-211" as="targetPoint" />
          </mxGeometry>
        </mxCell>
        <mxCell id="gP51IHi8TqBae0V_nnSG-27" value="Διαθέσιμα Αντίτυπα" style="ellipse;whiteSpace=wrap;html=1;align=center;" parent="1" vertex="1">
          <mxGeometry x="213.5" y="631" width="119" height="41" as="geometry" />
        </mxCell>
        <mxCell id="gP51IHi8TqBae0V_nnSG-28" value="Αριθμός Σελίδων" style="ellipse;whiteSpace=wrap;html=1;align=center;" parent="1" vertex="1">
          <mxGeometry x="-519" y="-290" width="100" height="40" as="geometry" />
        </mxCell>
        <mxCell id="gP51IHi8TqBae0V_nnSG-29" value="" style="endArrow=none;html=1;rounded=0;exitX=0.885;exitY=0.075;exitDx=0;exitDy=0;exitPerimeter=0;entryX=0;entryY=1;entryDx=0;entryDy=0;" parent="1" source="gP51IHi8TqBae0V_nnSG-6" target="gP51IHi8TqBae0V_nnSG-28" edge="1">
          <mxGeometry width="50" height="50" relative="1" as="geometry">
            <mxPoint x="-69" y="-169" as="sourcePoint" />
            <mxPoint x="-19" y="-219" as="targetPoint" />
          </mxGeometry>
        </mxCell>
        <mxCell id="byVzHg9DAZ4Ovvmfsdcb-32" value="Σχολείο" style="whiteSpace=wrap;html=1;align=center;" parent="1" vertex="1">
          <mxGeometry x="1353" y="-248" width="100" height="40" as="geometry" />
        </mxCell>
        <mxCell id="byVzHg9DAZ4Ovvmfsdcb-33" value="Όνομα Σχοχλέιου" style="ellipse;whiteSpace=wrap;html=1;align=center;" parent="1" vertex="1">
          <mxGeometry x="1589" y="-140.5" width="100" height="40" as="geometry" />
        </mxCell>
        <mxCell id="byVzHg9DAZ4Ovvmfsdcb-34" value="Ονοματεπώνυμο Χειριστή" style="ellipse;whiteSpace=wrap;html=1;align=center;" parent="1" vertex="1">
          <mxGeometry x="1618" y="-228" width="141" height="54" as="geometry" />
        </mxCell>
        <mxCell id="byVzHg9DAZ4Ovvmfsdcb-35" value="Ονοματεπώνυμο Διευθυντή" style="ellipse;whiteSpace=wrap;html=1;align=center;" parent="1" vertex="1">
          <mxGeometry x="1608" y="-317" width="153" height="54" as="geometry" />
        </mxCell>
        <mxCell id="byVzHg9DAZ4Ovvmfsdcb-36" value="Τηέλέφωνο" style="ellipse;whiteSpace=wrap;html=1;align=center;" parent="1" vertex="1">
          <mxGeometry x="1478" y="-351" width="100" height="40" as="geometry" />
        </mxCell>
        <mxCell id="byVzHg9DAZ4Ovvmfsdcb-37" value="Πόλη" style="ellipse;whiteSpace=wrap;html=1;align=center;" parent="1" vertex="1">
          <mxGeometry x="1339" y="-355" width="100" height="40" as="geometry" />
        </mxCell>
        <mxCell id="byVzHg9DAZ4Ovvmfsdcb-38" value="" style="endArrow=none;html=1;rounded=0;exitX=0.5;exitY=1;exitDx=0;exitDy=0;" parent="1" source="byVzHg9DAZ4Ovvmfsdcb-37" target="byVzHg9DAZ4Ovvmfsdcb-32" edge="1">
          <mxGeometry relative="1" as="geometry">
            <mxPoint x="1398" y="-111" as="sourcePoint" />
            <mxPoint x="1558" y="-111" as="targetPoint" />
          </mxGeometry>
        </mxCell>
        <mxCell id="byVzHg9DAZ4Ovvmfsdcb-39" value="" style="endArrow=none;html=1;rounded=0;exitX=0.267;exitY=0.937;exitDx=0;exitDy=0;exitPerimeter=0;" parent="1" source="byVzHg9DAZ4Ovvmfsdcb-36" target="byVzHg9DAZ4Ovvmfsdcb-32" edge="1">
          <mxGeometry relative="1" as="geometry">
            <mxPoint x="1398" y="-111" as="sourcePoint" />
            <mxPoint x="1558" y="-111" as="targetPoint" />
          </mxGeometry>
        </mxCell>
        <mxCell id="byVzHg9DAZ4Ovvmfsdcb-41" value="" style="endArrow=none;html=1;rounded=0;exitX=1;exitY=0.5;exitDx=0;exitDy=0;entryX=0.034;entryY=0.697;entryDx=0;entryDy=0;entryPerimeter=0;" parent="1" source="byVzHg9DAZ4Ovvmfsdcb-32" target="byVzHg9DAZ4Ovvmfsdcb-35" edge="1">
          <mxGeometry relative="1" as="geometry">
            <mxPoint x="1398" y="-111" as="sourcePoint" />
            <mxPoint x="1558" y="-111" as="targetPoint" />
          </mxGeometry>
        </mxCell>
        <mxCell id="byVzHg9DAZ4Ovvmfsdcb-42" value="" style="endArrow=none;html=1;rounded=0;exitX=1;exitY=1;exitDx=0;exitDy=0;entryX=0;entryY=0.5;entryDx=0;entryDy=0;" parent="1" source="byVzHg9DAZ4Ovvmfsdcb-32" target="byVzHg9DAZ4Ovvmfsdcb-34" edge="1">
          <mxGeometry relative="1" as="geometry">
            <mxPoint x="1398" y="-111" as="sourcePoint" />
            <mxPoint x="1558" y="-111" as="targetPoint" />
          </mxGeometry>
        </mxCell>
        <mxCell id="byVzHg9DAZ4Ovvmfsdcb-43" value="" style="endArrow=none;html=1;rounded=0;exitX=0.835;exitY=1.017;exitDx=0;exitDy=0;exitPerimeter=0;entryX=0;entryY=0.314;entryDx=0;entryDy=0;entryPerimeter=0;" parent="1" source="byVzHg9DAZ4Ovvmfsdcb-32" target="byVzHg9DAZ4Ovvmfsdcb-33" edge="1">
          <mxGeometry relative="1" as="geometry">
            <mxPoint x="1398" y="-111" as="sourcePoint" />
            <mxPoint x="1558" y="-111" as="targetPoint" />
          </mxGeometry>
        </mxCell>
        <mxCell id="byVzHg9DAZ4Ovvmfsdcb-44" value="Διεύθυνση" style="ellipse;whiteSpace=wrap;html=1;align=center;" parent="1" vertex="1">
          <mxGeometry x="1428" y="-131" width="100" height="40" as="geometry" />
        </mxCell>
        <mxCell id="byVzHg9DAZ4Ovvmfsdcb-45" value="" style="endArrow=none;html=1;rounded=0;exitX=0.675;exitY=1.043;exitDx=0;exitDy=0;exitPerimeter=0;" parent="1" source="byVzHg9DAZ4Ovvmfsdcb-32" target="byVzHg9DAZ4Ovvmfsdcb-44" edge="1">
          <mxGeometry relative="1" as="geometry">
            <mxPoint x="1398" y="-111" as="sourcePoint" />
            <mxPoint x="1558" y="-111" as="targetPoint" />
          </mxGeometry>
        </mxCell>
        <mxCell id="byVzHg9DAZ4Ovvmfsdcb-48" value="Email" style="ellipse;whiteSpace=wrap;html=1;align=center;" parent="1" vertex="1">
          <mxGeometry x="1624" y="-370" width="100" height="40" as="geometry" />
        </mxCell>
        <mxCell id="byVzHg9DAZ4Ovvmfsdcb-49" value="" style="endArrow=none;html=1;rounded=0;exitX=1;exitY=0;exitDx=0;exitDy=0;entryX=0.36;entryY=1;entryDx=0;entryDy=0;entryPerimeter=0;" parent="1" source="byVzHg9DAZ4Ovvmfsdcb-32" target="byVzHg9DAZ4Ovvmfsdcb-48" edge="1">
          <mxGeometry relative="1" as="geometry">
            <mxPoint x="1398" y="-111" as="sourcePoint" />
            <mxPoint x="1558" y="-111" as="targetPoint" />
          </mxGeometry>
        </mxCell>
        <mxCell id="byVzHg9DAZ4Ovvmfsdcb-50" value="school_id" style="ellipse;whiteSpace=wrap;html=1;align=center;fontStyle=4;" parent="1" vertex="1">
          <mxGeometry x="1205" y="-346" width="100" height="40" as="geometry" />
        </mxCell>
        <mxCell id="byVzHg9DAZ4Ovvmfsdcb-51" value="" style="endArrow=none;html=1;rounded=0;exitX=0.757;exitY=0.998;exitDx=0;exitDy=0;exitPerimeter=0;entryX=0.099;entryY=0.003;entryDx=0;entryDy=0;entryPerimeter=0;" parent="1" source="byVzHg9DAZ4Ovvmfsdcb-50" target="byVzHg9DAZ4Ovvmfsdcb-32" edge="1">
          <mxGeometry relative="1" as="geometry">
            <mxPoint x="1398" y="-111" as="sourcePoint" />
            <mxPoint x="1558" y="-111" as="targetPoint" />
          </mxGeometry>
        </mxCell>
        <mxCell id="byVzHg9DAZ4Ovvmfsdcb-1" value="Χρήστης" style="whiteSpace=wrap;html=1;align=center;flipH=0;direction=east;" parent="1" vertex="1">
          <mxGeometry x="415" y="-560" width="100" height="40" as="geometry" />
        </mxCell>
        <mxCell id="byVzHg9DAZ4Ovvmfsdcb-4" value="Ονοματεπώνυμο" style="ellipse;whiteSpace=wrap;html=1;align=center;flipH=0;direction=east;" parent="1" vertex="1">
          <mxGeometry x="682" y="-690" width="100" height="40" as="geometry" />
        </mxCell>
        <mxCell id="byVzHg9DAZ4Ovvmfsdcb-5" value="password" style="ellipse;whiteSpace=wrap;html=1;align=center;flipH=0;direction=east;" parent="1" vertex="1">
          <mxGeometry x="565" y="-710" width="100" height="40" as="geometry" />
        </mxCell>
        <mxCell id="byVzHg9DAZ4Ovvmfsdcb-6" value="username" style="ellipse;whiteSpace=wrap;html=1;align=center;flipH=0;direction=east;" parent="1" vertex="1">
          <mxGeometry x="345" y="-713" width="100" height="40" as="geometry" />
        </mxCell>
        <mxCell id="byVzHg9DAZ4Ovvmfsdcb-8" value="user_id" style="ellipse;whiteSpace=wrap;html=1;align=center;fontStyle=4;flipH=0;direction=east;" parent="1" vertex="1">
          <mxGeometry x="455" y="-722" width="100" height="40" as="geometry" />
        </mxCell>
        <mxCell id="byVzHg9DAZ4Ovvmfsdcb-12" value="" style="endArrow=none;html=1;rounded=0;exitX=0.5;exitY=1;exitDx=0;exitDy=0;entryX=0.25;entryY=0;entryDx=0;entryDy=0;" parent="1" source="byVzHg9DAZ4Ovvmfsdcb-6" target="byVzHg9DAZ4Ovvmfsdcb-1" edge="1">
          <mxGeometry width="50" height="50" relative="1" as="geometry">
            <mxPoint x="290" y="-270" as="sourcePoint" />
            <mxPoint x="340" y="-320" as="targetPoint" />
          </mxGeometry>
        </mxCell>
        <mxCell id="byVzHg9DAZ4Ovvmfsdcb-16" value="" style="endArrow=none;html=1;rounded=0;entryX=0.439;entryY=1.005;entryDx=0;entryDy=0;entryPerimeter=0;exitX=0.625;exitY=-0.005;exitDx=0;exitDy=0;exitPerimeter=0;" parent="1" source="byVzHg9DAZ4Ovvmfsdcb-1" target="byVzHg9DAZ4Ovvmfsdcb-8" edge="1">
          <mxGeometry width="50" height="50" relative="1" as="geometry">
            <mxPoint x="251.59999999999854" y="-270" as="sourcePoint" />
            <mxPoint x="301.59999999999854" y="-320" as="targetPoint" />
          </mxGeometry>
        </mxCell>
        <mxCell id="byVzHg9DAZ4Ovvmfsdcb-17" value="" style="endArrow=none;html=1;rounded=0;exitX=0;exitY=1;exitDx=0;exitDy=0;entryX=0.75;entryY=0;entryDx=0;entryDy=0;" parent="1" source="byVzHg9DAZ4Ovvmfsdcb-5" target="byVzHg9DAZ4Ovvmfsdcb-1" edge="1">
          <mxGeometry width="50" height="50" relative="1" as="geometry">
            <mxPoint x="290" y="-270" as="sourcePoint" />
            <mxPoint x="340" y="-320" as="targetPoint" />
          </mxGeometry>
        </mxCell>
        <mxCell id="byVzHg9DAZ4Ovvmfsdcb-18" value="" style="endArrow=none;html=1;rounded=0;entryX=0;entryY=1;entryDx=0;entryDy=0;exitX=1;exitY=0;exitDx=0;exitDy=0;" parent="1" source="byVzHg9DAZ4Ovvmfsdcb-1" target="byVzHg9DAZ4Ovvmfsdcb-4" edge="1">
          <mxGeometry width="50" height="50" relative="1" as="geometry">
            <mxPoint x="290" y="-270" as="sourcePoint" />
            <mxPoint x="340" y="-320" as="targetPoint" />
          </mxGeometry>
        </mxCell>
        <mxCell id="byVzHg9DAZ4Ovvmfsdcb-20" value="ISA" style="triangle;whiteSpace=wrap;html=1;direction=south;flipH=0;" parent="1" vertex="1">
          <mxGeometry x="435" y="-470" width="60" height="41" as="geometry" />
        </mxCell>
        <mxCell id="byVzHg9DAZ4Ovvmfsdcb-21" value="" style="endArrow=none;html=1;rounded=0;exitX=0.5;exitY=1;exitDx=0;exitDy=0;entryX=0;entryY=0.5;entryDx=0;entryDy=0;shape=link;" parent="1" source="byVzHg9DAZ4Ovvmfsdcb-1" target="byVzHg9DAZ4Ovvmfsdcb-20" edge="1">
          <mxGeometry width="50" height="50" relative="1" as="geometry">
            <mxPoint x="290" y="-270" as="sourcePoint" />
            <mxPoint x="340" y="-320" as="targetPoint" />
          </mxGeometry>
        </mxCell>
        <mxCell id="byVzHg9DAZ4Ovvmfsdcb-25" value="Απλός χρήστης" style="whiteSpace=wrap;html=1;align=center;flipH=0;" parent="1" vertex="1">
          <mxGeometry x="289" y="-161" width="100" height="40" as="geometry" />
        </mxCell>
        <mxCell id="byVzHg9DAZ4Ovvmfsdcb-26" value="Χειριστής" style="whiteSpace=wrap;html=1;align=center;flipH=0;" parent="1" vertex="1">
          <mxGeometry x="455" y="-346" width="100" height="40" as="geometry" />
        </mxCell>
        <mxCell id="byVzHg9DAZ4Ovvmfsdcb-27" value="Διαχειριστής" style="whiteSpace=wrap;html=1;align=center;flipH=0;" parent="1" vertex="1">
          <mxGeometry x="796" y="-450" width="100" height="40" as="geometry" />
        </mxCell>
        <mxCell id="byVzHg9DAZ4Ovvmfsdcb-29" value="" style="endArrow=none;html=1;rounded=0;exitX=0.585;exitY=0.07;exitDx=0;exitDy=0;exitPerimeter=0;" parent="1" source="byVzHg9DAZ4Ovvmfsdcb-25" target="byVzHg9DAZ4Ovvmfsdcb-20" edge="1">
          <mxGeometry relative="1" as="geometry">
            <mxPoint x="134.90557748697756" y="-310" as="sourcePoint" />
            <mxPoint x="294.90557748697756" y="-310" as="targetPoint" />
          </mxGeometry>
        </mxCell>
        <mxCell id="byVzHg9DAZ4Ovvmfsdcb-30" value="" style="endArrow=none;html=1;rounded=0;entryX=0.798;entryY=0.433;entryDx=0;entryDy=0;entryPerimeter=0;exitX=0.5;exitY=0;exitDx=0;exitDy=0;" parent="1" source="byVzHg9DAZ4Ovvmfsdcb-26" target="byVzHg9DAZ4Ovvmfsdcb-20" edge="1">
          <mxGeometry relative="1" as="geometry">
            <mxPoint x="154.91999999999825" y="-310" as="sourcePoint" />
            <mxPoint x="314.91999999999825" y="-310" as="targetPoint" />
          </mxGeometry>
        </mxCell>
        <mxCell id="byVzHg9DAZ4Ovvmfsdcb-31" value="" style="endArrow=none;html=1;rounded=0;exitX=0.5;exitY=0;exitDx=0;exitDy=0;entryX=0.644;entryY=0.017;entryDx=0;entryDy=0;entryPerimeter=0;" parent="1" source="byVzHg9DAZ4Ovvmfsdcb-20" target="byVzHg9DAZ4Ovvmfsdcb-27" edge="1">
          <mxGeometry relative="1" as="geometry">
            <mxPoint x="12.120000000006257" y="-310" as="sourcePoint" />
            <mxPoint x="172.12000000000626" y="-310" as="targetPoint" />
          </mxGeometry>
        </mxCell>
        <mxCell id="Vl-SBmCvc-Iw2d8S1rX8-2" value="ΙSA" style="triangle;whiteSpace=wrap;html=1;direction=south;" parent="1" vertex="1">
          <mxGeometry x="321.5" y="-88" width="53" height="42" as="geometry" />
        </mxCell>
        <mxCell id="Vl-SBmCvc-Iw2d8S1rX8-3" value="" style="endArrow=none;html=1;rounded=0;entryX=0;entryY=0.5;entryDx=0;entryDy=0;shape=link;width=4;" parent="1" target="Vl-SBmCvc-Iw2d8S1rX8-2" edge="1">
          <mxGeometry width="50" height="50" relative="1" as="geometry">
            <mxPoint x="348" y="-121" as="sourcePoint" />
            <mxPoint x="260" y="-227" as="targetPoint" />
          </mxGeometry>
        </mxCell>
        <mxCell id="Vl-SBmCvc-Iw2d8S1rX8-5" value="Εκπαιδευτικός" style="whiteSpace=wrap;html=1;align=center;" parent="1" vertex="1">
          <mxGeometry x="223" y="-39" width="100" height="38" as="geometry" />
        </mxCell>
        <mxCell id="Vl-SBmCvc-Iw2d8S1rX8-7" value="Μαθητής" style="whiteSpace=wrap;html=1;align=center;" parent="1" vertex="1">
          <mxGeometry x="460.5" y="-27" width="100" height="40" as="geometry" />
        </mxCell>
        <mxCell id="Vl-SBmCvc-Iw2d8S1rX8-9" value="" style="endArrow=none;html=1;rounded=0;entryX=0.75;entryY=0;entryDx=0;entryDy=0;exitX=0.5;exitY=1;exitDx=0;exitDy=0;" parent="1" source="Vl-SBmCvc-Iw2d8S1rX8-2" target="Vl-SBmCvc-Iw2d8S1rX8-5" edge="1">
          <mxGeometry relative="1" as="geometry">
            <mxPoint x="155" y="-121" as="sourcePoint" />
            <mxPoint x="315" y="-121" as="targetPoint" />
          </mxGeometry>
        </mxCell>
        <mxCell id="Vl-SBmCvc-Iw2d8S1rX8-10" value="" style="endArrow=none;html=1;rounded=0;entryX=0.5;entryY=0;entryDx=0;entryDy=0;exitX=0.5;exitY=0;exitDx=0;exitDy=0;" parent="1" source="Vl-SBmCvc-Iw2d8S1rX8-2" target="Vl-SBmCvc-Iw2d8S1rX8-7" edge="1">
          <mxGeometry relative="1" as="geometry">
            <mxPoint x="155" y="-121" as="sourcePoint" />
            <mxPoint x="430" y="6" as="targetPoint" />
          </mxGeometry>
        </mxCell>
        <mxCell id="Vl-SBmCvc-Iw2d8S1rX8-12" value="Καταχωρεί" style="shape=rhombus;perimeter=rhombusPerimeter;whiteSpace=wrap;html=1;align=center;" parent="1" vertex="1">
          <mxGeometry x="950" y="-318" width="120" height="60" as="geometry" />
        </mxCell>
        <mxCell id="Vl-SBmCvc-Iw2d8S1rX8-13" value="" style="endArrow=none;html=1;rounded=0;entryX=0;entryY=0.5;entryDx=0;entryDy=0;exitX=1;exitY=0.5;exitDx=0;exitDy=0;" parent="1" source="byVzHg9DAZ4Ovvmfsdcb-27" target="Vl-SBmCvc-Iw2d8S1rX8-12" edge="1">
          <mxGeometry relative="1" as="geometry">
            <mxPoint x="80" y="-355" as="sourcePoint" />
            <mxPoint x="240" y="-355" as="targetPoint" />
          </mxGeometry>
        </mxCell>
        <mxCell id="Vl-SBmCvc-Iw2d8S1rX8-14" value="" style="endArrow=none;html=1;rounded=0;entryX=1;entryY=0.5;entryDx=0;entryDy=0;exitX=0;exitY=0.5;exitDx=0;exitDy=0;" parent="1" source="byVzHg9DAZ4Ovvmfsdcb-32" target="Vl-SBmCvc-Iw2d8S1rX8-12" edge="1">
          <mxGeometry relative="1" as="geometry">
            <mxPoint x="80" y="-355" as="sourcePoint" />
            <mxPoint x="240" y="-355" as="targetPoint" />
          </mxGeometry>
        </mxCell>
        <mxCell id="Vl-SBmCvc-Iw2d8S1rX8-15" value="1...1" style="text;html=1;strokeColor=none;fillColor=none;align=center;verticalAlign=middle;whiteSpace=wrap;rounded=0;rotation=15;" parent="1" vertex="1">
          <mxGeometry x="1152" y="-295" width="60" height="30" as="geometry" />
        </mxCell>
        <mxCell id="Vl-SBmCvc-Iw2d8S1rX8-16" value="Εγκίρνει αίτηση" style="shape=rhombus;perimeter=rhombusPerimeter;whiteSpace=wrap;html=1;align=center;" parent="1" vertex="1">
          <mxGeometry x="674" y="-314" width="120" height="60" as="geometry" />
        </mxCell>
        <mxCell id="Vl-SBmCvc-Iw2d8S1rX8-17" value="" style="endArrow=none;html=1;rounded=0;entryX=0;entryY=0.5;entryDx=0;entryDy=0;exitX=1;exitY=0.25;exitDx=0;exitDy=0;" parent="1" source="byVzHg9DAZ4Ovvmfsdcb-26" target="Vl-SBmCvc-Iw2d8S1rX8-16" edge="1">
          <mxGeometry relative="1" as="geometry">
            <mxPoint x="501" y="-302" as="sourcePoint" />
            <mxPoint x="880" y="-275" as="targetPoint" />
          </mxGeometry>
        </mxCell>
        <mxCell id="Vl-SBmCvc-Iw2d8S1rX8-18" value="" style="endArrow=none;html=1;rounded=0;exitX=1;exitY=0.5;exitDx=0;exitDy=0;entryX=0.5;entryY=1;entryDx=0;entryDy=0;" parent="1" source="Vl-SBmCvc-Iw2d8S1rX8-16" target="byVzHg9DAZ4Ovvmfsdcb-27" edge="1">
          <mxGeometry relative="1" as="geometry">
            <mxPoint x="720" y="-275" as="sourcePoint" />
            <mxPoint x="880" y="-275" as="targetPoint" />
          </mxGeometry>
        </mxCell>
        <mxCell id="Vl-SBmCvc-Iw2d8S1rX8-19" value="1...1" style="text;html=1;strokeColor=none;fillColor=none;align=center;verticalAlign=middle;whiteSpace=wrap;rounded=0;rotation=30;" parent="1" vertex="1">
          <mxGeometry x="590" y="-341" width="60" height="30" as="geometry" />
        </mxCell>
        <mxCell id="Vl-SBmCvc-Iw2d8S1rX8-20" value="" style="endArrow=none;html=1;rounded=0;exitX=1;exitY=0.75;exitDx=0;exitDy=0;entryX=0;entryY=0.5;entryDx=0;entryDy=0;" parent="1" source="byVzHg9DAZ4Ovvmfsdcb-25" target="Vl-SBmCvc-Iw2d8S1rX8-22" edge="1">
          <mxGeometry width="50" height="50" relative="1" as="geometry">
            <mxPoint x="775" y="-250" as="sourcePoint" />
            <mxPoint x="674" y="-65" as="targetPoint" />
          </mxGeometry>
        </mxCell>
        <mxCell id="Vl-SBmCvc-Iw2d8S1rX8-22" value="Ανήκει στο" style="shape=rhombus;perimeter=rhombusPerimeter;whiteSpace=wrap;html=1;align=center;" parent="1" vertex="1">
          <mxGeometry x="672" y="-96" width="120" height="60" as="geometry" />
        </mxCell>
        <mxCell id="Vl-SBmCvc-Iw2d8S1rX8-23" value="" style="endArrow=none;html=1;rounded=0;entryX=0;entryY=1;entryDx=0;entryDy=0;exitX=1;exitY=0.5;exitDx=0;exitDy=0;" parent="1" source="Vl-SBmCvc-Iw2d8S1rX8-22" target="byVzHg9DAZ4Ovvmfsdcb-32" edge="1">
          <mxGeometry relative="1" as="geometry">
            <mxPoint x="720" y="-275" as="sourcePoint" />
            <mxPoint x="880" y="-275" as="targetPoint" />
          </mxGeometry>
        </mxCell>
        <mxCell id="90IATqhbiQScjesdW3bb-1" value="Ανήκει στο" style="shape=rhombus;perimeter=rhombusPerimeter;whiteSpace=wrap;html=1;align=center;" parent="1" vertex="1">
          <mxGeometry x="676" y="-205" width="120" height="60" as="geometry" />
        </mxCell>
        <mxCell id="90IATqhbiQScjesdW3bb-2" value="" style="endArrow=none;html=1;rounded=0;entryX=0;entryY=0.75;entryDx=0;entryDy=0;exitX=1;exitY=0.5;exitDx=0;exitDy=0;" parent="1" source="90IATqhbiQScjesdW3bb-1" target="byVzHg9DAZ4Ovvmfsdcb-32" edge="1">
          <mxGeometry relative="1" as="geometry">
            <mxPoint x="78" y="-435" as="sourcePoint" />
            <mxPoint x="238" y="-435" as="targetPoint" />
          </mxGeometry>
        </mxCell>
        <mxCell id="90IATqhbiQScjesdW3bb-3" value="" style="endArrow=none;html=1;rounded=0;entryX=0;entryY=0.5;entryDx=0;entryDy=0;exitX=0.5;exitY=1;exitDx=0;exitDy=0;" parent="1" source="byVzHg9DAZ4Ovvmfsdcb-26" target="90IATqhbiQScjesdW3bb-1" edge="1">
          <mxGeometry relative="1" as="geometry">
            <mxPoint x="78" y="-435" as="sourcePoint" />
            <mxPoint x="238" y="-435" as="targetPoint" />
          </mxGeometry>
        </mxCell>
        <mxCell id="90IATqhbiQScjesdW3bb-5" value="1...1" style="text;html=1;strokeColor=none;fillColor=none;align=center;verticalAlign=middle;whiteSpace=wrap;rounded=0;rotation=45;" parent="1" vertex="1">
          <mxGeometry x="576" y="-263" width="60" height="30" as="geometry" />
        </mxCell>
        <mxCell id="90IATqhbiQScjesdW3bb-7" value="1...1" style="text;html=1;strokeColor=none;fillColor=none;align=center;verticalAlign=middle;whiteSpace=wrap;rounded=0;rotation=15;" parent="1" vertex="1">
          <mxGeometry x="503" y="-136" width="60" height="30" as="geometry" />
        </mxCell>
        <mxCell id="90IATqhbiQScjesdW3bb-11" value="Καταχωρεί/&amp;nbsp;&lt;br&gt;Επεξεργάζεται" style="shape=rhombus;perimeter=rhombusPerimeter;whiteSpace=wrap;html=1;align=center;" parent="1" vertex="1">
          <mxGeometry x="-100" y="-495" width="144" height="82" as="geometry" />
        </mxCell>
        <mxCell id="90IATqhbiQScjesdW3bb-12" value="" style="endArrow=none;html=1;rounded=0;exitX=1;exitY=0.5;exitDx=0;exitDy=0;entryX=0;entryY=0.5;entryDx=0;entryDy=0;" parent="1" source="90IATqhbiQScjesdW3bb-11" target="byVzHg9DAZ4Ovvmfsdcb-26" edge="1">
          <mxGeometry relative="1" as="geometry">
            <mxPoint x="278" y="-243" as="sourcePoint" />
            <mxPoint x="438" y="-243" as="targetPoint" />
          </mxGeometry>
        </mxCell>
        <mxCell id="90IATqhbiQScjesdW3bb-13" value="" style="endArrow=none;html=1;rounded=0;exitX=0;exitY=0.5;exitDx=0;exitDy=0;entryX=1;entryY=0.25;entryDx=0;entryDy=0;" parent="1" source="90IATqhbiQScjesdW3bb-11" target="gP51IHi8TqBae0V_nnSG-6" edge="1">
          <mxGeometry relative="1" as="geometry">
            <mxPoint x="278" y="-243" as="sourcePoint" />
            <mxPoint x="-437" y="-120" as="targetPoint" />
            <Array as="points">
              <mxPoint x="-326" y="-219" />
            </Array>
          </mxGeometry>
        </mxCell>
        <mxCell id="90IATqhbiQScjesdW3bb-14" value="1...1" style="text;html=1;strokeColor=none;fillColor=none;align=center;verticalAlign=middle;whiteSpace=wrap;rounded=0;rotation=-50;" parent="1" vertex="1">
          <mxGeometry x="-311" y="-303" width="60" height="30" as="geometry" />
        </mxCell>
        <mxCell id="90IATqhbiQScjesdW3bb-16" value="Δανεισμός" style="shape=ext;margin=3;double=1;whiteSpace=wrap;html=1;align=center;" parent="1" vertex="1">
          <mxGeometry x="-76" y="-315" width="100" height="40" as="geometry" />
        </mxCell>
        <mxCell id="90IATqhbiQScjesdW3bb-17" value="Αριθμός Ενεργών Κρατήσεων" style="ellipse;whiteSpace=wrap;html=1;align=center;" parent="1" vertex="1">
          <mxGeometry x="177.5" y="-275" width="191" height="66" as="geometry" />
        </mxCell>
        <mxCell id="90IATqhbiQScjesdW3bb-18" value="" style="endArrow=none;html=1;rounded=0;entryX=0.25;entryY=0;entryDx=0;entryDy=0;exitX=0.631;exitY=1.007;exitDx=0;exitDy=0;exitPerimeter=0;" parent="1" source="90IATqhbiQScjesdW3bb-17" target="byVzHg9DAZ4Ovvmfsdcb-25" edge="1">
          <mxGeometry relative="1" as="geometry">
            <mxPoint x="278" y="-251" as="sourcePoint" />
            <mxPoint x="438" y="-251" as="targetPoint" />
          </mxGeometry>
        </mxCell>
        <mxCell id="90IATqhbiQScjesdW3bb-19" value="Καταχωρεί/&amp;nbsp;&lt;br&gt;Επεξεργάζεται" style="shape=rhombus;perimeter=rhombusPerimeter;whiteSpace=wrap;html=1;align=center;" parent="1" vertex="1">
          <mxGeometry x="159" y="-365.5" width="140" height="79" as="geometry" />
        </mxCell>
        <mxCell id="90IATqhbiQScjesdW3bb-20" value="" style="endArrow=none;html=1;rounded=0;exitX=1;exitY=0.25;exitDx=0;exitDy=0;entryX=0;entryY=0.5;entryDx=0;entryDy=0;" parent="1" source="90IATqhbiQScjesdW3bb-16" target="90IATqhbiQScjesdW3bb-19" edge="1">
          <mxGeometry relative="1" as="geometry">
            <mxPoint x="277" y="-267" as="sourcePoint" />
            <mxPoint x="437" y="-267" as="targetPoint" />
          </mxGeometry>
        </mxCell>
        <mxCell id="90IATqhbiQScjesdW3bb-21" value="" style="endArrow=none;html=1;rounded=0;exitX=1;exitY=0.5;exitDx=0;exitDy=0;entryX=0;entryY=1;entryDx=0;entryDy=0;" parent="1" source="90IATqhbiQScjesdW3bb-19" target="byVzHg9DAZ4Ovvmfsdcb-26" edge="1">
          <mxGeometry relative="1" as="geometry">
            <mxPoint x="277" y="-267" as="sourcePoint" />
            <mxPoint x="437" y="-267" as="targetPoint" />
          </mxGeometry>
        </mxCell>
        <mxCell id="90IATqhbiQScjesdW3bb-23" value="" style="endArrow=none;html=1;rounded=0;exitX=0;exitY=0;exitDx=0;exitDy=0;" parent="1" source="byVzHg9DAZ4Ovvmfsdcb-25" edge="1">
          <mxGeometry relative="1" as="geometry">
            <mxPoint x="277" y="-267" as="sourcePoint" />
            <mxPoint x="174.20295202952047" y="-206.60147601476024" as="targetPoint" />
          </mxGeometry>
        </mxCell>
        <mxCell id="90IATqhbiQScjesdW3bb-24" value="Πραγματοποιεί" style="shape=rhombus;double=1;perimeter=rhombusPerimeter;whiteSpace=wrap;html=1;align=center;" parent="1" vertex="1">
          <mxGeometry x="54" y="-239" width="120" height="60" as="geometry" />
        </mxCell>
        <mxCell id="90IATqhbiQScjesdW3bb-25" value="" style="endArrow=none;html=1;rounded=0;exitX=0;exitY=0.5;exitDx=0;exitDy=0;entryX=0.75;entryY=1;entryDx=0;entryDy=0;" parent="1" source="90IATqhbiQScjesdW3bb-24" target="90IATqhbiQScjesdW3bb-16" edge="1">
          <mxGeometry relative="1" as="geometry">
            <mxPoint x="277" y="-267" as="sourcePoint" />
            <mxPoint x="437" y="-267" as="targetPoint" />
          </mxGeometry>
        </mxCell>
        <mxCell id="90IATqhbiQScjesdW3bb-27" value="Συμμετέχει" style="shape=rhombus;double=1;perimeter=rhombusPerimeter;whiteSpace=wrap;html=1;align=center;" parent="1" vertex="1">
          <mxGeometry x="-329" y="-176" width="120" height="60" as="geometry" />
        </mxCell>
        <mxCell id="90IATqhbiQScjesdW3bb-28" value="" style="endArrow=none;html=1;rounded=0;exitX=1;exitY=0.5;exitDx=0;exitDy=0;entryX=0;entryY=0.5;entryDx=0;entryDy=0;" parent="1" source="gP51IHi8TqBae0V_nnSG-6" target="90IATqhbiQScjesdW3bb-27" edge="1">
          <mxGeometry relative="1" as="geometry">
            <mxPoint x="277" y="-267" as="sourcePoint" />
            <mxPoint x="437" y="-267" as="targetPoint" />
          </mxGeometry>
        </mxCell>
        <mxCell id="90IATqhbiQScjesdW3bb-29" value="" style="endArrow=none;html=1;rounded=0;exitX=1;exitY=0.5;exitDx=0;exitDy=0;entryX=0;entryY=0.75;entryDx=0;entryDy=0;" parent="1" source="90IATqhbiQScjesdW3bb-27" target="90IATqhbiQScjesdW3bb-16" edge="1">
          <mxGeometry relative="1" as="geometry">
            <mxPoint x="277" y="-267" as="sourcePoint" />
            <mxPoint x="437" y="-267" as="targetPoint" />
          </mxGeometry>
        </mxCell>
        <mxCell id="90IATqhbiQScjesdW3bb-30" value="borrow_id" style="ellipse;whiteSpace=wrap;html=1;align=center;fontStyle=4;" parent="1" vertex="1">
          <mxGeometry x="-187" y="-354" width="100" height="40" as="geometry" />
        </mxCell>
        <mxCell id="90IATqhbiQScjesdW3bb-32" value="Ημερομηνία Δανεισμού" style="ellipse;whiteSpace=wrap;html=1;align=center;" parent="1" vertex="1">
          <mxGeometry x="-103" y="-388" width="141" height="44" as="geometry" />
        </mxCell>
        <mxCell id="90IATqhbiQScjesdW3bb-33" value="Ημερομηνία Επιστροφής" style="ellipse;whiteSpace=wrap;html=1;align=center;" parent="1" vertex="1">
          <mxGeometry x="59" y="-391" width="163" height="37" as="geometry" />
        </mxCell>
        <mxCell id="90IATqhbiQScjesdW3bb-34" value="" style="endArrow=none;html=1;rounded=0;exitX=0.5;exitY=1;exitDx=0;exitDy=0;entryX=0;entryY=0.25;entryDx=0;entryDy=0;" parent="1" source="90IATqhbiQScjesdW3bb-30" target="90IATqhbiQScjesdW3bb-16" edge="1">
          <mxGeometry relative="1" as="geometry">
            <mxPoint x="277" y="-283" as="sourcePoint" />
            <mxPoint x="437" y="-283" as="targetPoint" />
          </mxGeometry>
        </mxCell>
        <mxCell id="90IATqhbiQScjesdW3bb-35" value="" style="endArrow=none;html=1;rounded=0;exitX=0.5;exitY=1;exitDx=0;exitDy=0;entryX=0.5;entryY=0;entryDx=0;entryDy=0;" parent="1" source="90IATqhbiQScjesdW3bb-32" target="90IATqhbiQScjesdW3bb-16" edge="1">
          <mxGeometry relative="1" as="geometry">
            <mxPoint x="277" y="-283" as="sourcePoint" />
            <mxPoint x="437" y="-283" as="targetPoint" />
          </mxGeometry>
        </mxCell>
        <mxCell id="90IATqhbiQScjesdW3bb-36" value="" style="endArrow=none;html=1;rounded=0;exitX=0.75;exitY=0;exitDx=0;exitDy=0;entryX=0;entryY=1;entryDx=0;entryDy=0;" parent="1" source="90IATqhbiQScjesdW3bb-16" target="90IATqhbiQScjesdW3bb-33" edge="1">
          <mxGeometry relative="1" as="geometry">
            <mxPoint x="277" y="-283" as="sourcePoint" />
            <mxPoint x="437" y="-283" as="targetPoint" />
          </mxGeometry>
        </mxCell>
        <mxCell id="90IATqhbiQScjesdW3bb-39" value="1...1" style="text;html=1;strokeColor=none;fillColor=none;align=center;verticalAlign=middle;whiteSpace=wrap;rounded=0;rotation=-50;" parent="1" vertex="1">
          <mxGeometry x="-191" y="-243" width="60" height="30" as="geometry" />
        </mxCell>
        <mxCell id="90IATqhbiQScjesdW3bb-45" value="1...1" style="text;html=1;strokeColor=none;fillColor=none;align=center;verticalAlign=middle;whiteSpace=wrap;rounded=0;rotation=45;" parent="1" vertex="1">
          <mxGeometry x="16" y="-269" width="60" height="30" as="geometry" />
        </mxCell>
        <mxCell id="90IATqhbiQScjesdW3bb-46" value="1...1" style="text;html=1;strokeColor=none;fillColor=none;align=center;verticalAlign=middle;whiteSpace=wrap;rounded=0;rotation=-15;" parent="1" vertex="1">
          <mxGeometry x="50" y="-345" width="60" height="30" as="geometry" />
        </mxCell>
        <mxCell id="90IATqhbiQScjesdW3bb-52" value="Κράτηση" style="shape=ext;margin=3;double=1;whiteSpace=wrap;html=1;align=center;" parent="1" vertex="1">
          <mxGeometry x="-126" y="-100.5" width="100" height="40" as="geometry" />
        </mxCell>
        <mxCell id="90IATqhbiQScjesdW3bb-53" value="Κρατείται" style="shape=rhombus;double=1;perimeter=rhombusPerimeter;whiteSpace=wrap;html=1;align=center;" parent="1" vertex="1">
          <mxGeometry x="-377" y="-93.5" width="120" height="60" as="geometry" />
        </mxCell>
        <mxCell id="90IATqhbiQScjesdW3bb-54" value="" style="endArrow=none;html=1;rounded=0;entryX=0;entryY=0.5;entryDx=0;entryDy=0;exitX=1;exitY=0.75;exitDx=0;exitDy=0;" parent="1" source="gP51IHi8TqBae0V_nnSG-6" target="90IATqhbiQScjesdW3bb-53" edge="1">
          <mxGeometry relative="1" as="geometry">
            <mxPoint x="-349" y="-9" as="sourcePoint" />
            <mxPoint x="437" y="-289" as="targetPoint" />
          </mxGeometry>
        </mxCell>
        <mxCell id="90IATqhbiQScjesdW3bb-55" value="" style="endArrow=none;html=1;rounded=0;exitX=1;exitY=0.5;exitDx=0;exitDy=0;entryX=0;entryY=0.75;entryDx=0;entryDy=0;" parent="1" source="90IATqhbiQScjesdW3bb-53" target="90IATqhbiQScjesdW3bb-52" edge="1">
          <mxGeometry relative="1" as="geometry">
            <mxPoint x="277" y="-289" as="sourcePoint" />
            <mxPoint x="437" y="-289" as="targetPoint" />
          </mxGeometry>
        </mxCell>
        <mxCell id="90IATqhbiQScjesdW3bb-56" value="Κάνει" style="shape=rhombus;double=1;perimeter=rhombusPerimeter;whiteSpace=wrap;html=1;align=center;" parent="1" vertex="1">
          <mxGeometry x="87" y="-127" width="120" height="60" as="geometry" />
        </mxCell>
        <mxCell id="90IATqhbiQScjesdW3bb-57" value="" style="endArrow=none;html=1;rounded=0;exitX=1;exitY=0.75;exitDx=0;exitDy=0;entryX=0;entryY=0.5;entryDx=0;entryDy=0;" parent="1" source="90IATqhbiQScjesdW3bb-52" target="90IATqhbiQScjesdW3bb-56" edge="1">
          <mxGeometry relative="1" as="geometry">
            <mxPoint x="277" y="-289" as="sourcePoint" />
            <mxPoint x="437" y="-289" as="targetPoint" />
          </mxGeometry>
        </mxCell>
        <mxCell id="90IATqhbiQScjesdW3bb-58" value="" style="endArrow=none;html=1;rounded=0;entryX=0;entryY=0.5;entryDx=0;entryDy=0;exitX=1;exitY=0.5;exitDx=0;exitDy=0;" parent="1" source="90IATqhbiQScjesdW3bb-56" target="byVzHg9DAZ4Ovvmfsdcb-25" edge="1">
          <mxGeometry relative="1" as="geometry">
            <mxPoint x="-57" y="83" as="sourcePoint" />
            <mxPoint x="103" y="83" as="targetPoint" />
          </mxGeometry>
        </mxCell>
        <mxCell id="90IATqhbiQScjesdW3bb-60" value="1...1" style="text;html=1;strokeColor=none;fillColor=none;align=center;verticalAlign=middle;whiteSpace=wrap;rounded=0;rotation=-5;" parent="1" vertex="1">
          <mxGeometry x="-222" y="-97" width="60" height="30" as="geometry" />
        </mxCell>
        <mxCell id="90IATqhbiQScjesdW3bb-62" value="1...1" style="text;html=1;strokeColor=none;fillColor=none;align=center;verticalAlign=middle;whiteSpace=wrap;rounded=0;rotation=-15;" parent="1" vertex="1">
          <mxGeometry x="-1" y="-112" width="60" height="30" as="geometry" />
        </mxCell>
        <mxCell id="90IATqhbiQScjesdW3bb-64" value="reserve_id" style="ellipse;whiteSpace=wrap;html=1;align=center;fontStyle=4;" parent="1" vertex="1">
          <mxGeometry x="-170" y="-174" width="100" height="40" as="geometry" />
        </mxCell>
        <mxCell id="90IATqhbiQScjesdW3bb-65" value="" style="endArrow=none;html=1;rounded=0;exitX=0.25;exitY=0;exitDx=0;exitDy=0;entryX=0.304;entryY=1.005;entryDx=0;entryDy=0;entryPerimeter=0;" parent="1" source="90IATqhbiQScjesdW3bb-52" target="90IATqhbiQScjesdW3bb-64" edge="1">
          <mxGeometry relative="1" as="geometry">
            <mxPoint x="277" y="-289" as="sourcePoint" />
            <mxPoint x="437" y="-289" as="targetPoint" />
          </mxGeometry>
        </mxCell>
        <mxCell id="90IATqhbiQScjesdW3bb-66" value="Ημερομηνία Κράτησης" style="ellipse;whiteSpace=wrap;html=1;align=center;" parent="1" vertex="1">
          <mxGeometry x="-41" y="-176" width="147" height="40" as="geometry" />
        </mxCell>
        <mxCell id="90IATqhbiQScjesdW3bb-67" value="" style="endArrow=none;html=1;rounded=0;exitX=0.75;exitY=0;exitDx=0;exitDy=0;entryX=0;entryY=1;entryDx=0;entryDy=0;" parent="1" source="90IATqhbiQScjesdW3bb-52" target="90IATqhbiQScjesdW3bb-66" edge="1">
          <mxGeometry relative="1" as="geometry">
            <mxPoint x="277" y="-295" as="sourcePoint" />
            <mxPoint x="437" y="-295" as="targetPoint" />
          </mxGeometry>
        </mxCell>
        <mxCell id="90IATqhbiQScjesdW3bb-70" value="Αξιολόγηση" style="shape=ext;margin=3;double=1;whiteSpace=wrap;html=1;align=center;" parent="1" vertex="1">
          <mxGeometry x="257" y="272" width="100" height="40" as="geometry" />
        </mxCell>
        <mxCell id="90IATqhbiQScjesdW3bb-71" value="review_id" style="ellipse;whiteSpace=wrap;html=1;align=center;fontStyle=4;" parent="1" vertex="1">
          <mxGeometry x="142" y="354" width="100" height="40" as="geometry" />
        </mxCell>
        <mxCell id="90IATqhbiQScjesdW3bb-72" value="" style="endArrow=none;html=1;rounded=0;exitX=1;exitY=0;exitDx=0;exitDy=0;entryX=0.25;entryY=1;entryDx=0;entryDy=0;" parent="1" source="90IATqhbiQScjesdW3bb-71" target="90IATqhbiQScjesdW3bb-70" edge="1">
          <mxGeometry relative="1" as="geometry">
            <mxPoint x="363" y="-79" as="sourcePoint" />
            <mxPoint x="523" y="-79" as="targetPoint" />
          </mxGeometry>
        </mxCell>
        <mxCell id="90IATqhbiQScjesdW3bb-73" value="Likert" style="ellipse;whiteSpace=wrap;html=1;align=center;" parent="1" vertex="1">
          <mxGeometry x="263" y="368" width="100" height="40" as="geometry" />
        </mxCell>
        <mxCell id="90IATqhbiQScjesdW3bb-74" value="" style="endArrow=none;html=1;rounded=0;entryX=0.5;entryY=0;entryDx=0;entryDy=0;exitX=0.5;exitY=1;exitDx=0;exitDy=0;" parent="1" source="90IATqhbiQScjesdW3bb-70" target="90IATqhbiQScjesdW3bb-73" edge="1">
          <mxGeometry relative="1" as="geometry">
            <mxPoint x="363" y="-79" as="sourcePoint" />
            <mxPoint x="523" y="-79" as="targetPoint" />
          </mxGeometry>
        </mxCell>
        <mxCell id="90IATqhbiQScjesdW3bb-75" value="Κείμενο" style="ellipse;whiteSpace=wrap;html=1;align=center;" parent="1" vertex="1">
          <mxGeometry x="377" y="348" width="100" height="40" as="geometry" />
        </mxCell>
        <mxCell id="90IATqhbiQScjesdW3bb-76" value="" style="endArrow=none;html=1;rounded=0;exitX=0.75;exitY=1;exitDx=0;exitDy=0;" parent="1" source="90IATqhbiQScjesdW3bb-70" target="90IATqhbiQScjesdW3bb-75" edge="1">
          <mxGeometry relative="1" as="geometry">
            <mxPoint x="363" y="-79" as="sourcePoint" />
            <mxPoint x="523" y="-79" as="targetPoint" />
          </mxGeometry>
        </mxCell>
        <mxCell id="90IATqhbiQScjesdW3bb-77" value="ISA" style="triangle;whiteSpace=wrap;html=1;direction=north;" parent="1" vertex="1">
          <mxGeometry x="272.5" y="190" width="69" height="47" as="geometry" />
        </mxCell>
        <mxCell id="90IATqhbiQScjesdW3bb-79" value="" style="endArrow=none;html=1;rounded=0;entryX=0.5;entryY=0;entryDx=0;entryDy=0;exitX=0;exitY=0.5;exitDx=0;exitDy=0;shape=link;" parent="1" source="90IATqhbiQScjesdW3bb-77" target="90IATqhbiQScjesdW3bb-70" edge="1">
          <mxGeometry relative="1" as="geometry">
            <mxPoint x="363" y="-79" as="sourcePoint" />
            <mxPoint x="523" y="-79" as="targetPoint" />
          </mxGeometry>
        </mxCell>
        <mxCell id="90IATqhbiQScjesdW3bb-80" value="Αξιολογείται" style="shape=rhombus;double=1;perimeter=rhombusPerimeter;whiteSpace=wrap;html=1;align=center;rotation=30;" parent="1" vertex="1">
          <mxGeometry x="-252" y="38" width="120" height="60" as="geometry" />
        </mxCell>
        <mxCell id="90IATqhbiQScjesdW3bb-81" value="" style="endArrow=none;html=1;rounded=0;exitX=1;exitY=0.5;exitDx=0;exitDy=0;entryX=0;entryY=0.25;entryDx=0;entryDy=0;" parent="1" source="90IATqhbiQScjesdW3bb-80" target="90IATqhbiQScjesdW3bb-70" edge="1">
          <mxGeometry relative="1" as="geometry">
            <mxPoint x="351" y="160" as="sourcePoint" />
            <mxPoint x="511" y="160" as="targetPoint" />
          </mxGeometry>
        </mxCell>
        <mxCell id="90IATqhbiQScjesdW3bb-82" value="" style="endArrow=none;html=1;rounded=0;entryX=0;entryY=0.5;entryDx=0;entryDy=0;exitX=1;exitY=1;exitDx=0;exitDy=0;" parent="1" source="gP51IHi8TqBae0V_nnSG-6" target="90IATqhbiQScjesdW3bb-80" edge="1">
          <mxGeometry relative="1" as="geometry">
            <mxPoint x="-368" y="-8" as="sourcePoint" />
            <mxPoint x="517" y="25" as="targetPoint" />
          </mxGeometry>
        </mxCell>
        <mxCell id="90IATqhbiQScjesdW3bb-83" value="1...1" style="text;html=1;strokeColor=none;fillColor=none;align=center;verticalAlign=middle;whiteSpace=wrap;rounded=0;rotation=30;" parent="1" vertex="1">
          <mxGeometry x="-61" y="116" width="60" height="30" as="geometry" />
        </mxCell>
        <mxCell id="90IATqhbiQScjesdW3bb-84" value="Δεν απαιτεί έγκριση" style="shape=ext;margin=3;double=1;whiteSpace=wrap;html=1;align=center;" parent="1" vertex="1">
          <mxGeometry x="136" y="129" width="149" height="40" as="geometry" />
        </mxCell>
        <mxCell id="90IATqhbiQScjesdW3bb-85" value="" style="endArrow=none;html=1;rounded=0;entryX=0.5;entryY=1;entryDx=0;entryDy=0;exitX=0.25;exitY=1;exitDx=0;exitDy=0;" parent="1" source="90IATqhbiQScjesdW3bb-87" target="90IATqhbiQScjesdW3bb-77" edge="1">
          <mxGeometry relative="1" as="geometry">
            <mxPoint x="443" y="13" as="sourcePoint" />
            <mxPoint x="603" y="13" as="targetPoint" />
          </mxGeometry>
        </mxCell>
        <mxCell id="90IATqhbiQScjesdW3bb-86" value="" style="endArrow=none;html=1;rounded=0;exitX=0.5;exitY=1;exitDx=0;exitDy=0;entryX=0.5;entryY=0;entryDx=0;entryDy=0;" parent="1" source="90IATqhbiQScjesdW3bb-84" target="90IATqhbiQScjesdW3bb-77" edge="1">
          <mxGeometry relative="1" as="geometry">
            <mxPoint x="443" y="13" as="sourcePoint" />
            <mxPoint x="603" y="13" as="targetPoint" />
          </mxGeometry>
        </mxCell>
        <mxCell id="90IATqhbiQScjesdW3bb-87" value="Απαιτεί Έγκριση" style="shape=ext;margin=3;double=1;whiteSpace=wrap;html=1;align=center;" parent="1" vertex="1">
          <mxGeometry x="480" y="163" width="100" height="40" as="geometry" />
        </mxCell>
        <mxCell id="90IATqhbiQScjesdW3bb-88" value="Αξιολογεί" style="shape=rhombus;double=1;perimeter=rhombusPerimeter;whiteSpace=wrap;html=1;align=center;" parent="1" vertex="1">
          <mxGeometry x="169" y="41" width="120" height="60" as="geometry" />
        </mxCell>
        <mxCell id="90IATqhbiQScjesdW3bb-89" value="" style="endArrow=none;html=1;rounded=0;entryX=0.5;entryY=0;entryDx=0;entryDy=0;exitX=0.5;exitY=1;exitDx=0;exitDy=0;" parent="1" source="90IATqhbiQScjesdW3bb-88" target="90IATqhbiQScjesdW3bb-84" edge="1">
          <mxGeometry relative="1" as="geometry">
            <mxPoint x="443" y="13" as="sourcePoint" />
            <mxPoint x="603" y="13" as="targetPoint" />
          </mxGeometry>
        </mxCell>
        <mxCell id="90IATqhbiQScjesdW3bb-90" value="" style="endArrow=none;html=1;rounded=0;exitX=0.5;exitY=0;exitDx=0;exitDy=0;entryX=0;entryY=0.75;entryDx=0;entryDy=0;" parent="1" source="90IATqhbiQScjesdW3bb-88" target="Vl-SBmCvc-Iw2d8S1rX8-5" edge="1">
          <mxGeometry relative="1" as="geometry">
            <mxPoint x="443" y="13" as="sourcePoint" />
            <mxPoint x="603" y="13" as="targetPoint" />
          </mxGeometry>
        </mxCell>
        <mxCell id="90IATqhbiQScjesdW3bb-91" value="Αξιολογεί" style="shape=rhombus;double=1;perimeter=rhombusPerimeter;whiteSpace=wrap;html=1;align=center;" parent="1" vertex="1">
          <mxGeometry x="431" y="41" width="120" height="60" as="geometry" />
        </mxCell>
        <mxCell id="90IATqhbiQScjesdW3bb-92" value="" style="endArrow=none;html=1;rounded=0;exitX=0.5;exitY=1;exitDx=0;exitDy=0;" parent="1" source="90IATqhbiQScjesdW3bb-91" target="90IATqhbiQScjesdW3bb-87" edge="1">
          <mxGeometry relative="1" as="geometry">
            <mxPoint x="443" y="13" as="sourcePoint" />
            <mxPoint x="603" y="13" as="targetPoint" />
          </mxGeometry>
        </mxCell>
        <mxCell id="90IATqhbiQScjesdW3bb-93" value="" style="endArrow=none;html=1;rounded=0;entryX=0.5;entryY=0;entryDx=0;entryDy=0;exitX=0.5;exitY=1;exitDx=0;exitDy=0;" parent="1" source="Vl-SBmCvc-Iw2d8S1rX8-7" target="90IATqhbiQScjesdW3bb-91" edge="1">
          <mxGeometry relative="1" as="geometry">
            <mxPoint x="443" y="13" as="sourcePoint" />
            <mxPoint x="603" y="13" as="targetPoint" />
          </mxGeometry>
        </mxCell>
        <mxCell id="90IATqhbiQScjesdW3bb-94" value="Εγκρίνει" style="shape=rhombus;perimeter=rhombusPerimeter;whiteSpace=wrap;html=1;align=center;" parent="1" vertex="1">
          <mxGeometry x="624" y="38" width="120" height="60" as="geometry" />
        </mxCell>
        <mxCell id="90IATqhbiQScjesdW3bb-95" value="" style="endArrow=none;html=1;rounded=0;exitX=0.25;exitY=1;exitDx=0;exitDy=0;entryX=0.5;entryY=0;entryDx=0;entryDy=0;" parent="1" source="byVzHg9DAZ4Ovvmfsdcb-26" target="90IATqhbiQScjesdW3bb-94" edge="1">
          <mxGeometry relative="1" as="geometry">
            <mxPoint x="550" y="53" as="sourcePoint" />
            <mxPoint x="710" y="53" as="targetPoint" />
          </mxGeometry>
        </mxCell>
        <mxCell id="90IATqhbiQScjesdW3bb-96" value="" style="endArrow=none;html=1;rounded=0;exitX=1;exitY=0.75;exitDx=0;exitDy=0;entryX=0.5;entryY=1;entryDx=0;entryDy=0;" parent="1" source="90IATqhbiQScjesdW3bb-87" target="90IATqhbiQScjesdW3bb-94" edge="1">
          <mxGeometry relative="1" as="geometry">
            <mxPoint x="550" y="53" as="sourcePoint" />
            <mxPoint x="710" y="53" as="targetPoint" />
          </mxGeometry>
        </mxCell>
        <mxCell id="90IATqhbiQScjesdW3bb-97" value="1...1" style="text;html=1;strokeColor=none;fillColor=none;align=center;verticalAlign=middle;whiteSpace=wrap;rounded=0;rotation=60;" parent="1" vertex="1">
          <mxGeometry x="500.5" y="116" width="60" height="30" as="geometry" />
        </mxCell>
        <mxCell id="90IATqhbiQScjesdW3bb-98" value="1...1" style="text;html=1;strokeColor=none;fillColor=none;align=center;verticalAlign=middle;whiteSpace=wrap;rounded=0;rotation=-60;" parent="1" vertex="1">
          <mxGeometry x="166" y="93" width="60" height="30" as="geometry" />
        </mxCell>
        <mxCell id="90IATqhbiQScjesdW3bb-99" value="1...1" style="text;html=1;strokeColor=none;fillColor=none;align=center;verticalAlign=middle;whiteSpace=wrap;rounded=0;rotation=-45;" parent="1" vertex="1">
          <mxGeometry x="588" y="111" width="60" height="30" as="geometry" />
        </mxCell>
        <mxCell id="90IATqhbiQScjesdW3bb-101" value="Στην βιβλιοθήκη του" style="shape=rhombus;perimeter=rhombusPerimeter;whiteSpace=wrap;html=1;align=center;" parent="1" vertex="1">
          <mxGeometry x="207" y="483" width="120" height="60" as="geometry" />
        </mxCell>
        <mxCell id="90IATqhbiQScjesdW3bb-102" value="" style="endArrow=none;html=1;rounded=0;exitX=1;exitY=0.5;exitDx=0;exitDy=0;entryX=0.25;entryY=1;entryDx=0;entryDy=0;" parent="1" source="90IATqhbiQScjesdW3bb-101" target="byVzHg9DAZ4Ovvmfsdcb-32" edge="1">
          <mxGeometry relative="1" as="geometry">
            <mxPoint x="550" y="53" as="sourcePoint" />
            <mxPoint x="710" y="53" as="targetPoint" />
          </mxGeometry>
        </mxCell>
        <mxCell id="90IATqhbiQScjesdW3bb-104" value="" style="endArrow=none;html=1;rounded=0;entryX=0;entryY=0.5;entryDx=0;entryDy=0;exitX=1;exitY=1;exitDx=0;exitDy=0;" parent="1" source="gP51IHi8TqBae0V_nnSG-6" target="90IATqhbiQScjesdW3bb-101" edge="1">
          <mxGeometry relative="1" as="geometry">
            <mxPoint x="-424" y="23" as="sourcePoint" />
            <mxPoint x="710" y="53" as="targetPoint" />
          </mxGeometry>
        </mxCell>
        <mxCell id="90IATqhbiQScjesdW3bb-105" value="1...*" style="text;html=1;strokeColor=none;fillColor=none;align=center;verticalAlign=middle;whiteSpace=wrap;rounded=0;rotation=45;" parent="1" vertex="1">
          <mxGeometry x="-95" y="251" width="60" height="30" as="geometry" />
        </mxCell>
        <mxCell id="H-eDrQXZCRibyy9c3LL--4" value="" style="endArrow=none;html=1;rounded=0;exitX=0.5;exitY=1;exitDx=0;exitDy=0;" parent="1" target="H-eDrQXZCRibyy9c3LL--2" edge="1">
          <mxGeometry width="50" height="50" relative="1" as="geometry">
            <mxPoint x="-680" y="-199" as="sourcePoint" />
            <mxPoint x="-555" y="-85" as="targetPoint" />
          </mxGeometry>
        </mxCell>
        <mxCell id="H-eDrQXZCRibyy9c3LL--2" value="Λέξεις Κλειδιά" style="ellipse;whiteSpace=wrap;html=1;align=center;" parent="1" vertex="1">
          <mxGeometry x="-728" y="-219" width="100" height="40" as="geometry" />
        </mxCell>
        <mxCell id="H-eDrQXZCRibyy9c3LL--9" value="" style="endArrow=none;html=1;rounded=0;exitX=1;exitY=0.5;exitDx=0;exitDy=0;entryX=0;entryY=0.25;entryDx=0;entryDy=0;" parent="1" source="gP51IHi8TqBae0V_nnSG-21" target="gP51IHi8TqBae0V_nnSG-6" edge="1">
          <mxGeometry relative="1" as="geometry">
            <mxPoint x="-134" y="165" as="sourcePoint" />
            <mxPoint x="26" y="165" as="targetPoint" />
          </mxGeometry>
        </mxCell>
        <mxCell id="H-eDrQXZCRibyy9c3LL--12" value="Συγγραφέας" style="whiteSpace=wrap;html=1;align=center;" parent="1" vertex="1">
          <mxGeometry x="-362" y="241" width="100" height="40" as="geometry" />
        </mxCell>
        <mxCell id="H-eDrQXZCRibyy9c3LL--13" value="Έχει γράψει" style="shape=rhombus;perimeter=rhombusPerimeter;whiteSpace=wrap;html=1;align=center;" parent="1" vertex="1">
          <mxGeometry x="-468" y="74" width="120" height="60" as="geometry" />
        </mxCell>
        <mxCell id="H-eDrQXZCRibyy9c3LL--14" value="" style="endArrow=none;html=1;rounded=0;exitX=0.5;exitY=1;exitDx=0;exitDy=0;entryX=0.75;entryY=0;entryDx=0;entryDy=0;" parent="1" source="H-eDrQXZCRibyy9c3LL--13" target="H-eDrQXZCRibyy9c3LL--12" edge="1">
          <mxGeometry relative="1" as="geometry">
            <mxPoint x="-134" y="165" as="sourcePoint" />
            <mxPoint x="26" y="165" as="targetPoint" />
          </mxGeometry>
        </mxCell>
        <mxCell id="H-eDrQXZCRibyy9c3LL--16" value="" style="endArrow=none;html=1;rounded=0;exitX=0.75;exitY=1;exitDx=0;exitDy=0;entryX=0.5;entryY=0;entryDx=0;entryDy=0;" parent="1" source="gP51IHi8TqBae0V_nnSG-6" target="H-eDrQXZCRibyy9c3LL--13" edge="1">
          <mxGeometry relative="1" as="geometry">
            <mxPoint x="-134" y="165" as="sourcePoint" />
            <mxPoint x="26" y="165" as="targetPoint" />
          </mxGeometry>
        </mxCell>
        <mxCell id="H-eDrQXZCRibyy9c3LL--17" value="Επώνυμο" style="ellipse;whiteSpace=wrap;html=1;align=center;fontStyle=4;" parent="1" vertex="1">
          <mxGeometry x="-325" y="368" width="100" height="40" as="geometry" />
        </mxCell>
        <mxCell id="H-eDrQXZCRibyy9c3LL--18" value="&lt;u&gt;&#39;Ονομα&lt;/u&gt;" style="ellipse;whiteSpace=wrap;html=1;align=center;" parent="1" vertex="1">
          <mxGeometry x="-215" y="351" width="166" height="40" as="geometry" />
        </mxCell>
        <mxCell id="H-eDrQXZCRibyy9c3LL--20" value="" style="endArrow=none;html=1;rounded=0;exitX=0.75;exitY=1;exitDx=0;exitDy=0;entryX=0.5;entryY=0;entryDx=0;entryDy=0;" parent="1" source="H-eDrQXZCRibyy9c3LL--12" target="H-eDrQXZCRibyy9c3LL--18" edge="1">
          <mxGeometry relative="1" as="geometry">
            <mxPoint x="-134" y="159" as="sourcePoint" />
            <mxPoint x="26" y="159" as="targetPoint" />
          </mxGeometry>
        </mxCell>
        <mxCell id="H-eDrQXZCRibyy9c3LL--21" value="" style="endArrow=none;html=1;rounded=0;exitX=0.25;exitY=1;exitDx=0;exitDy=0;entryX=0.5;entryY=0;entryDx=0;entryDy=0;" parent="1" source="H-eDrQXZCRibyy9c3LL--12" target="H-eDrQXZCRibyy9c3LL--17" edge="1">
          <mxGeometry relative="1" as="geometry">
            <mxPoint x="-467" y="376" as="sourcePoint" />
            <mxPoint x="-307" y="376" as="targetPoint" />
          </mxGeometry>
        </mxCell>
        <mxCell id="H-eDrQXZCRibyy9c3LL--22" value="1..*" style="text;html=1;strokeColor=none;fillColor=none;align=center;verticalAlign=middle;whiteSpace=wrap;rounded=0;rotation=45;" parent="1" vertex="1">
          <mxGeometry x="-503" y="16" width="60" height="30" as="geometry" />
        </mxCell>
        <mxCell id="H-eDrQXZCRibyy9c3LL--23" value="0...*" style="text;html=1;strokeColor=none;fillColor=none;align=center;verticalAlign=middle;whiteSpace=wrap;rounded=0;rotation=45;" parent="1" vertex="1">
          <mxGeometry x="-355" y="160" width="60" height="30" as="geometry" />
        </mxCell>
        <mxCell id="H-eDrQXZCRibyy9c3LL--24" value="&lt;u&gt;όνομα Κατηγορίας&amp;nbsp;&lt;/u&gt;" style="ellipse;whiteSpace=wrap;html=1;align=center;" parent="1" vertex="1">
          <mxGeometry x="-701" y="354" width="122" height="40" as="geometry" />
        </mxCell>
        <mxCell id="H-eDrQXZCRibyy9c3LL--25" value="Κατηγορία" style="whiteSpace=wrap;html=1;align=center;" parent="1" vertex="1">
          <mxGeometry x="-638" y="246" width="100" height="40" as="geometry" />
        </mxCell>
        <mxCell id="H-eDrQXZCRibyy9c3LL--26" value="Ανήκει" style="shape=rhombus;perimeter=rhombusPerimeter;whiteSpace=wrap;html=1;align=center;" parent="1" vertex="1">
          <mxGeometry x="-616" y="116" width="120" height="60" as="geometry" />
        </mxCell>
        <mxCell id="H-eDrQXZCRibyy9c3LL--27" value="" style="endArrow=none;html=1;rounded=0;exitX=0.5;exitY=0;exitDx=0;exitDy=0;entryX=0.5;entryY=1;entryDx=0;entryDy=0;" parent="1" source="H-eDrQXZCRibyy9c3LL--26" target="gP51IHi8TqBae0V_nnSG-6" edge="1">
          <mxGeometry relative="1" as="geometry">
            <mxPoint x="-150" y="159" as="sourcePoint" />
            <mxPoint x="10" y="159" as="targetPoint" />
          </mxGeometry>
        </mxCell>
        <mxCell id="H-eDrQXZCRibyy9c3LL--28" value="" style="endArrow=none;html=1;rounded=0;exitX=0.5;exitY=0;exitDx=0;exitDy=0;entryX=0.5;entryY=1;entryDx=0;entryDy=0;" parent="1" source="H-eDrQXZCRibyy9c3LL--25" target="H-eDrQXZCRibyy9c3LL--26" edge="1">
          <mxGeometry relative="1" as="geometry">
            <mxPoint x="-150" y="159" as="sourcePoint" />
            <mxPoint x="10" y="159" as="targetPoint" />
          </mxGeometry>
        </mxCell>
        <mxCell id="H-eDrQXZCRibyy9c3LL--30" value="" style="endArrow=none;html=1;rounded=0;exitX=0.5;exitY=0;exitDx=0;exitDy=0;entryX=0.25;entryY=1;entryDx=0;entryDy=0;" parent="1" source="H-eDrQXZCRibyy9c3LL--24" target="H-eDrQXZCRibyy9c3LL--25" edge="1">
          <mxGeometry relative="1" as="geometry">
            <mxPoint x="-150" y="159" as="sourcePoint" />
            <mxPoint x="10" y="159" as="targetPoint" />
          </mxGeometry>
        </mxCell>
        <mxCell id="H-eDrQXZCRibyy9c3LL--34" value="0...*" style="text;html=1;strokeColor=none;fillColor=none;align=center;verticalAlign=middle;whiteSpace=wrap;rounded=0;rotation=-75;" parent="1" vertex="1">
          <mxGeometry x="-628" y="196" width="60" height="30" as="geometry" />
        </mxCell>
        <mxCell id="XDSHC76xHHmY_wiOhgKg-1" value="1...1" style="text;html=1;strokeColor=none;fillColor=none;align=center;verticalAlign=middle;whiteSpace=wrap;rounded=0;rotation=-5;" parent="1" vertex="1">
          <mxGeometry x="902" y="-219" width="60" height="30" as="geometry" />
        </mxCell>
        <mxCell id="ocpsze2jIQQ88efi8aqP-5" value="1...*" style="text;html=1;strokeColor=none;fillColor=none;align=center;verticalAlign=middle;whiteSpace=wrap;rounded=0;rotation=-75;" vertex="1" parent="1">
          <mxGeometry x="-593" y="61" width="60" height="30" as="geometry" />
        </mxCell>
        <mxCell id="ocpsze2jIQQ88efi8aqP-9" value="0...*" style="text;html=1;strokeColor=none;fillColor=none;align=center;verticalAlign=middle;whiteSpace=wrap;rounded=0;rotation=-45;" vertex="1" parent="1">
          <mxGeometry x="965" y="21" width="60" height="30" as="geometry" />
        </mxCell>
        <mxCell id="ocpsze2jIQQ88efi8aqP-10" value="" style="endArrow=none;html=1;rounded=0;entryX=0.5;entryY=0;entryDx=0;entryDy=0;" edge="1" parent="1" source="90IATqhbiQScjesdW3bb-101" target="gP51IHi8TqBae0V_nnSG-27">
          <mxGeometry width="50" height="50" relative="1" as="geometry">
            <mxPoint x="-210" y="207" as="sourcePoint" />
            <mxPoint x="-160" y="157" as="targetPoint" />
          </mxGeometry>
        </mxCell>
        <mxCell id="ocpsze2jIQQ88efi8aqP-11" value="Αριθμός Ενεργών &lt;br&gt;Δανεισμών" style="ellipse;whiteSpace=wrap;html=1;align=center;" vertex="1" parent="1">
          <mxGeometry x="382" y="-238" width="144" height="59" as="geometry" />
        </mxCell>
        <mxCell id="ocpsze2jIQQ88efi8aqP-12" value="" style="endArrow=none;html=1;rounded=0;entryX=0.922;entryY=-0.025;entryDx=0;entryDy=0;entryPerimeter=0;exitX=0.288;exitY=1.003;exitDx=0;exitDy=0;exitPerimeter=0;" edge="1" parent="1" source="ocpsze2jIQQ88efi8aqP-11" target="byVzHg9DAZ4Ovvmfsdcb-25">
          <mxGeometry width="50" height="50" relative="1" as="geometry">
            <mxPoint x="210" y="-93" as="sourcePoint" />
            <mxPoint x="260" y="-143" as="targetPoint" />
          </mxGeometry>
        </mxCell>
        <mxCell id="ocpsze2jIQQ88efi8aqP-13" value="Ηλικία" style="ellipse;whiteSpace=wrap;html=1;align=center;" vertex="1" parent="1">
          <mxGeometry x="207" y="-91" width="87" height="39" as="geometry" />
        </mxCell>
        <mxCell id="ocpsze2jIQQ88efi8aqP-14" value="" style="endArrow=none;html=1;rounded=0;entryX=0.106;entryY=0.995;entryDx=0;entryDy=0;entryPerimeter=0;" edge="1" parent="1" source="ocpsze2jIQQ88efi8aqP-13" target="byVzHg9DAZ4Ovvmfsdcb-25">
          <mxGeometry relative="1" as="geometry">
            <mxPoint x="89" y="177" as="sourcePoint" />
            <mxPoint x="249" y="177" as="targetPoint" />
          </mxGeometry>
        </mxCell>
      </root>
    </mxGraphModel>
  </diagram>
</mxfile>
